<svg xmlns="http://www.w3.org/2000/svg" xmlns:cc="http://web.resource.org/cc/" xmlns:svg="http://www.w3.org/2000/svg" xmlns:xlink="http://www.w3.org/1999/xlink" id="svg1288" width="24" height="24"><defs id="defs3"><linearGradient id="linearGradient2218"><stop id="stop2220" offset="0" style="stop-color:#b6b6b6;stop-opacity:1"/><stop id="stop2222" offset="1" style="stop-color:#f0f0f0;stop-opacity:1"/></linearGradient><linearGradient id="linearGradient2224" x1="6.253" x2="16.256" y1="4.391" y2="19.5" gradientTransform="matrix(2.441894e-16,-1.000000,1.000000,2.441894e-16,26.76771,32.18389)" gradientUnits="userSpaceOnUse" xlink:href="#linearGradient2218"/><linearGradient id="linearGradient1481" x1="6.253" x2="16.256" y1="4.391" y2="19.5" gradientTransform="translate(-3.774201,1.895977)" gradientUnits="userSpaceOnUse" xlink:href="#linearGradient2218"/></defs><metadata id="metadata4"/><g id="layer1"><path id="path1294" d="M 5.3447546,1.3822577 L 5.3447546,14.426613 L 10.351409,14.426613 C 10.351409,14.766046 10.351409,17.484475 10.351409,17.484475 L 6.3705613,17.484475 L 13.714322,24.203225 L 20.308072,17.484475 L 16.139726,17.484475 C 16.139726,17.484475 16.139726,14.766046 16.139726,14.426613 L 21.058072,14.426613 L 21.058072,1.3822577 L 5.3447546,1.3822577 z" style="opacity:.17714281;fill:#000;fill-opacity:1;fill-rule:evenodd;stroke:#000;stroke-width:.80000001;stroke-linecap:butt;stroke-linejoin:miter;stroke-miterlimit:4;stroke-dasharray:none;stroke-opacity:1"/><path style="fill:url(#linearGradient1481);fill-opacity:1;fill-rule:evenodd;stroke:#000;stroke-width:.80000001;stroke-linecap:butt;stroke-linejoin:miter;stroke-miterlimit:4;stroke-dasharray:none;stroke-opacity:1" id="path1479" d="M 4.4459673,0.55403264 L 4.4459673,13.598388 L 9.4844750,13.598388 C 9.4844750,13.937821 9.4844750,16.656250 9.4844750,16.656250 L 5.5036288,16.656250 L 12.847380,23.375000 L 19.441130,16.656250 L 15.272784,16.656250 C 15.272784,16.656250 15.272784,13.937821 15.272784,13.598388 L 20.191130,13.598388 L 20.191130,0.55403264 L 4.4459673,0.55403264 z"/><path id="path1778" d="M 5.2697792,1.3337820 L 5.2697792,12.813148 L 10.364096,12.813148 C 10.364096,13.121805 10.364096,17.377623 10.364096,17.377623 L 7.5087071,17.377623 L 12.784989,22.276701 L 17.634111,17.377623 L 14.359329,17.377623 C 14.359329,17.377623 14.359329,13.121805 14.359329,12.813148 L 19.271752,12.813148 L 19.271752,1.3337820 L 5.2697792,1.3337820 z" style="fill:none;fill-opacity:1;fill-rule:evenodd;stroke:#fff;stroke-width:.79999995;stroke-linecap:butt;stroke-linejoin:miter;stroke-miterlimit:4;stroke-dasharray:none;stroke-opacity:1"/></g></svg>