<svg xmlns="http://www.w3.org/2000/svg" xmlns:cc="http://web.resource.org/cc/" xmlns:svg="http://www.w3.org/2000/svg" xmlns:xlink="http://www.w3.org/1999/xlink" id="svg1288" width="24" height="24"><defs id="defs3"><linearGradient id="linearGradient2218"><stop style="stop-color:#b6b6b6;stop-opacity:1" id="stop2220" offset="0"/><stop style="stop-color:#f0f0f0;stop-opacity:1" id="stop2222" offset="1"/></linearGradient><linearGradient id="linearGradient2224" x1="6.253" x2="16.256" y1="4.391" y2="19.5" gradientTransform="matrix(2.441894e-16,-1.000000,1.000000,2.441894e-16,26.76771,32.18389)" gradientUnits="userSpaceOnUse" xlink:href="#linearGradient2218"/><linearGradient id="linearGradient1481" x1="7.502" x2="22.882" y1="11.591" y2="3.764" gradientTransform="matrix(2.583112e-17,1.000000,-1.000000,2.583112e-17,48.22134,-3.459283)" gradientUnits="userSpaceOnUse" xlink:href="#linearGradient2218"/><linearGradient id="linearGradient2105" x1="8.897" x2="20.874" y1="39.685" y2="34.514" gradientTransform="matrix(2.583112e-17,1.000000,-1.000000,2.583112e-17,72.78655,-2.442357)" gradientUnits="userSpaceOnUse" xlink:href="#linearGradient2218"/><linearGradient id="linearGradient2533" x1="5.804" x2="24.321" y1="62.799" y2="56.17" gradientTransform="matrix(2.583112e-17,1.000000,-1.000000,2.583112e-17,97.62367,-2.442357)" gradientUnits="userSpaceOnUse" xlink:href="#linearGradient2218"/><linearGradient id="linearGradient1298" x1="6.265" x2="25.813" y1="115.104" y2="109.666" gradientTransform="matrix(2.243715e-17,0.609017,-0.868609,1.573157e-17,108.8030,2.427982)" gradientUnits="userSpaceOnUse" xlink:href="#linearGradient2218"/></defs><metadata id="metadata4"/><g id="layer1"><path style="opacity:.21142854;color:#000;fill:#000;fill-opacity:1;fill-rule:evenodd;stroke:#000;stroke-width:.80000007;stroke-linecap:butt;stroke-linejoin:miter;marker:none;marker-start:none;marker-mid:none;marker-end:none;stroke-miterlimit:4;stroke-dasharray:none;stroke-dashoffset:0;stroke-opacity:1;visibility:visible;display:inline;overflow:visible;font-family:Bitstream Vera Sans" id="path2358" d="M 12.395420,5.4724258 C 6.8244533,5.4724258 2.3139013,8.6355902 2.3139013,12.542404 C 2.3139013,16.449217 6.8244533,19.632241 12.395420,19.632240 C 17.966387,19.632240 22.476938,16.449217 22.476938,12.542404 C 22.476938,8.6355902 17.966387,5.4724258 12.395420,5.4724258 z M 12.395420,8.8286792 C 15.320160,8.8286793 17.691049,10.491338 17.691049,12.542404 C 17.691049,14.593468 15.320160,16.256128 12.395420,16.256128 C 9.4706786,16.256129 7.0997908,14.593468 7.0997908,12.542404 C 7.0997909,10.491338 9.4706786,8.8286792 12.395420,8.8286792 z"/><path id="path1296" d="M 11.389343,4.4230577 C 5.8183767,4.4230577 1.3078247,7.5862221 1.3078247,11.493035 C 1.3078247,15.399848 5.8183767,18.582872 11.389343,18.582872 C 16.960310,18.582872 21.470862,15.399848 21.470862,11.493035 C 21.470862,7.5862221 16.960310,4.4230577 11.389343,4.4230577 z" style="opacity:1;color:#000;fill:url(#linearGradient1298);fill-opacity:1;fill-rule:evenodd;stroke:#000;stroke-width:.80000007;stroke-linecap:butt;stroke-linejoin:miter;marker:none;marker-start:none;marker-mid:none;marker-end:none;stroke-miterlimit:4;stroke-dasharray:none;stroke-dashoffset:0;stroke-opacity:1;visibility:visible;display:inline;overflow:visible;font-family:Bitstream Vera Sans"/><path d="M 20.761057,11.499670 C 20.761057,14.981499 16.598531,17.807332 11.469704,17.807332 C 6.3408777,17.807332 2.1783520,14.981499 2.1783520,11.499670 C 2.1783520,8.0178420 6.3408777,5.1920099 11.469704,5.1920099 C 16.598531,5.1920099 20.761057,8.0178420 20.761057,11.499670 z" style="opacity:.82285714;color:#000;fill:none;fill-opacity:1;fill-rule:evenodd;stroke:#fff;stroke-width:.80000019;stroke-linecap:butt;stroke-linejoin:miter;marker:none;marker-start:none;marker-mid:none;marker-end:none;stroke-miterlimit:4;stroke-dashoffset:0;stroke-opacity:1;visibility:visible;display:inline;overflow:visible;font-family:Bitstream Vera Sans" id="path1592"/></g></svg>