<svg xmlns="http://www.w3.org/2000/svg" xmlns:cc="http://web.resource.org/cc/" xmlns:svg="http://www.w3.org/2000/svg" xmlns:xlink="http://www.w3.org/1999/xlink" id="svg1288" width="24" height="24"><defs id="defs3"><linearGradient id="linearGradient2080"><stop id="stop2082" offset="0" style="stop-color:#8d8d8d;stop-opacity:1"/><stop id="stop2084" offset="1" style="stop-color:#f0f0f0;stop-opacity:1"/></linearGradient><linearGradient id="linearGradient2218"><stop style="stop-color:#a2a2a2;stop-opacity:1" id="stop2220" offset="0"/><stop style="stop-color:#f0f0f0;stop-opacity:1" id="stop2222" offset="1"/></linearGradient><linearGradient id="linearGradient2302" x1="-18.949" x2="-3.798" y1="55.719" y2="49.647" gradientTransform="matrix(0.000000,1.192114,-1.192114,0.000000,100.8265,26.12576)" gradientUnits="userSpaceOnUse" xlink:href="#linearGradient2218"/><linearGradient id="linearGradient2330" x1="-20.173" x2="-3.415" y1="78.035" y2="73.595" gradientTransform="matrix(0.000000,1.155211,-1.136763,0.000000,96.70109,25.77759)" gradientUnits="userSpaceOnUse" xlink:href="#linearGradient2218"/><linearGradient id="linearGradient2253" x1="-20.173" x2="-3.415" y1="78.035" y2="73.595" gradientTransform="matrix(0.000000,1.155211,-1.136763,0.000000,96.70110,25.77759)" gradientUnits="userSpaceOnUse" xlink:href="#linearGradient2218"/></defs><metadata id="metadata4"/><g id="layer1"><path style="opacity:.18285711;color:#000;fill:#000;fill-opacity:1;fill-rule:evenodd;stroke:#000;stroke-width:1;stroke-linecap:butt;stroke-linejoin:miter;marker:none;marker-start:none;marker-mid:none;marker-end:none;stroke-miterlimit:4;stroke-dasharray:none;stroke-dashoffset:0;stroke-opacity:1;visibility:visible;display:inline;overflow:visible;font-family:Bitstream Vera Sans" id="path2259" d="M 2.4748739,4.9965043 C 2.4748739,4.9965043 2.4748738,21.436738 2.4748738,21.436738 C 9.9878837,28.949748 14.584078,14.188893 23.511302,21.083185 C 23.511302,21.083185 23.599690,4.9965043 23.599690,4.9965043 C 15.733126,-2.8700589 10.341437,12.863068 2.4748739,4.9965043 z"/><path id="path2249" d="M 1.5026020,3.8474558 C 1.5026020,3.8474558 1.5026019,20.287689 1.5026019,20.287689 C 9.0156118,27.800699 13.611806,13.039844 22.539030,19.934136 C 22.539030,19.934136 22.627418,3.8474558 22.627418,3.8474558 C 14.760854,-4.0191074 9.3691653,11.714019 1.5026020,3.8474558 z" style="stroke-dashoffset:0;stroke-opacity:1;visibility:visible;display:inline;overflow:visible;font-family:Bitstream Vera Sans;stroke-dasharray:none;stroke-miterlimit:4;marker-end:none;marker-mid:none;marker-start:none;marker:none;color:#000;opacity:1;stroke-linejoin:miter;stroke-linecap:butt;stroke-width:1;stroke:#000;fill-rule:evenodd;fill-opacity:1;fill:url(#linearGradient2330)"/><path style="opacity:.82285714;color:#000;fill:none;fill-opacity:1;fill-rule:evenodd;stroke:#fff;stroke-width:1.0000002;stroke-linecap:butt;stroke-linejoin:miter;marker:none;marker-start:none;marker-mid:none;marker-end:none;stroke-miterlimit:4;stroke-dasharray:none;stroke-dashoffset:0;stroke-opacity:1;visibility:visible;display:inline;overflow:visible;font-family:Bitstream Vera Sans" id="path2255" d="M 2.5317877,6.0103253 C 2.5317877,6.0103253 2.3550109,19.709585 2.3550109,19.709585 C 8.3804161,25.734991 13.752143,12.958268 21.693757,18.147127 C 21.693757,18.147127 21.775012,4.5077234 21.775012,4.5077234 C 15.250403,-2.1052739 10.735775,10.943943 2.5317877,6.0103253 z"/></g></svg>