<svg xmlns="http://www.w3.org/2000/svg" xmlns:cc="http://web.resource.org/cc/" xmlns:svg="http://www.w3.org/2000/svg" xmlns:xlink="http://www.w3.org/1999/xlink" id="svg1288" width="24" height="24"><defs id="defs3"><linearGradient id="linearGradient2218"><stop style="stop-color:#b6b6b6;stop-opacity:1" id="stop2220" offset="0"/><stop style="stop-color:#f0f0f0;stop-opacity:1" id="stop2222" offset="1"/></linearGradient><linearGradient id="linearGradient2224" x1="6.253" x2="16.256" y1="4.391" y2="19.5" gradientTransform="matrix(1.192114,0.000000,0.000000,1.192114,0.370166,0.104334)" gradientUnits="userSpaceOnUse" xlink:href="#linearGradient2218"/></defs><metadata id="metadata4"/><g id="layer1"><path id="path1293" d="M 1.8265970,7.5825220 L 6.5902183,7.5825220 C 6.5142692,10.012895 6.6803013,15.344972 13.218971,15.344972 C 19.695144,15.344972 19.225062,8.6458106 19.225062,7.5825220 L 23.413482,7.5825220 C 23.641329,13.278707 21.181151,18.894023 12.836349,18.894023 C 4.4156015,18.894023 2.0544444,13.734403 1.8265970,7.5825220 z" style="opacity:.17714281;fill:#000;fill-opacity:1;fill-rule:evenodd;stroke:#000;stroke-width:.99999994;stroke-linecap:butt;stroke-linejoin:miter;stroke-miterlimit:4;stroke-dasharray:none;stroke-opacity:1"/><path style="fill:url(#linearGradient2224);fill-opacity:1;fill-rule:evenodd;stroke:#000;stroke-width:.99999994;stroke-linecap:butt;stroke-linejoin:miter;stroke-miterlimit:4;stroke-dasharray:none;stroke-opacity:1" id="path1316" d="M 0.87095270,6.7292950 L 5.5019914,6.7292950 C 5.5586248,10.131940 6.0999560,14.179245 12.263327,14.179245 C 18.364198,14.179245 18.269418,7.7925840 18.269418,6.7292950 L 22.457838,6.7292950 C 22.685685,12.425480 20.225507,18.040796 11.880705,18.040796 C 3.4599572,18.040796 1.0988001,12.881176 0.87095270,6.7292950 z"/><path id="path2226" d="M 1.7394744,7.5153320 L 4.6217536,7.5276430 C 4.5710426,11.947731 6.4111600,15.084361 12.168482,15.084361 C 17.988304,15.084361 19.137000,10.059487 19.137000,7.5489620 L 21.585438,7.5349830 C 21.592829,11.581225 19.633343,17.187245 12.050219,17.187245 C 4.3980785,17.187245 1.9465249,13.105697 1.7394744,7.5153320 z" style="fill:none;fill-opacity:1;fill-rule:evenodd;stroke:#fff;stroke-width:.79999989;stroke-linecap:butt;stroke-linejoin:miter;stroke-miterlimit:4;stroke-dasharray:none;stroke-opacity:1"/></g></svg>