<svg xmlns="http://www.w3.org/2000/svg" xmlns:cc="http://web.resource.org/cc/" xmlns:svg="http://www.w3.org/2000/svg" xmlns:xlink="http://www.w3.org/1999/xlink" id="svg1288" width="24" height="24"><defs id="defs3"><linearGradient id="linearGradient2218"><stop style="stop-color:#b6b6b6;stop-opacity:1" id="stop2220" offset="0"/><stop style="stop-color:#f0f0f0;stop-opacity:1" id="stop2222" offset="1"/></linearGradient><linearGradient id="linearGradient2224" x1="6.253" x2="16.256" y1="4.391" y2="19.5" gradientTransform="matrix(1.192114,0.000000,0.000000,1.192114,0.370166,0.104330)" gradientUnits="userSpaceOnUse" xlink:href="#linearGradient2218"/></defs><metadata id="metadata4"/><g id="layer1"><path id="path1293" d="M 1.8265970,18.394349 L 6.5902183,18.394349 C 6.5142692,15.963976 6.6803013,10.631899 13.218971,10.631899 C 19.695144,10.631899 19.225062,17.331060 19.225062,18.394349 L 23.413482,18.394349 C 23.641329,12.698164 21.181151,7.0828486 12.836349,7.0828486 C 4.4156015,7.0828486 2.0544444,12.242468 1.8265970,18.394349 z" style="opacity:.17714281;fill:#000;fill-opacity:1;fill-rule:evenodd;stroke:#000;stroke-width:.99999994;stroke-linecap:butt;stroke-linejoin:miter;stroke-miterlimit:4;stroke-dasharray:none;stroke-opacity:1"/><path style="fill:url(#linearGradient2224);fill-opacity:1;fill-rule:evenodd;stroke:#000;stroke-width:.99999994;stroke-linecap:butt;stroke-linejoin:miter;stroke-miterlimit:4;stroke-dasharray:none;stroke-opacity:1" id="path1316" d="M 0.87095270,17.247576 L 5.5019914,17.247576 C 5.5586248,13.844931 6.0999560,9.7976260 12.263327,9.7976260 C 18.364198,9.7976260 18.269418,16.184287 18.269418,17.247576 L 22.457838,17.247576 C 22.685685,11.551391 20.225507,5.9360754 11.880705,5.9360754 C 3.4599572,5.9360754 1.0988001,11.095695 0.87095270,17.247576 z"/><path id="path2226" d="M 1.7394744,16.461539 L 4.6217536,16.449228 C 4.5710426,12.029140 6.4111600,8.8925100 12.168482,8.8925100 C 17.988304,8.8925100 19.137000,13.917384 19.137000,16.427909 L 21.585438,16.441888 C 21.592829,12.395646 19.633343,6.7896262 12.050219,6.7896262 C 4.3980785,6.7896262 1.9465249,10.871174 1.7394744,16.461539 z" style="fill:none;fill-opacity:1;fill-rule:evenodd;stroke:#fff;stroke-width:.79999989;stroke-linecap:butt;stroke-linejoin:miter;stroke-miterlimit:4;stroke-dasharray:none;stroke-opacity:1"/></g></svg>