<svg xmlns="http://www.w3.org/2000/svg" xmlns:cc="http://web.resource.org/cc/" xmlns:svg="http://www.w3.org/2000/svg" xmlns:xlink="http://www.w3.org/1999/xlink" id="svg1288" width="24" height="24"><defs id="defs3"><linearGradient id="linearGradient2533"><stop id="stop2535" offset="0" style="stop-color:#959595;stop-opacity:1"/><stop id="stop2537" offset="1" style="stop-color:#f0f0f0;stop-opacity:1"/></linearGradient><linearGradient id="linearGradient2056"><stop style="stop-color:#000;stop-opacity:1" id="stop2058" offset="0"/><stop style="stop-color:#000;stop-opacity:0" id="stop2060" offset="1"/></linearGradient><linearGradient id="linearGradient2218"><stop style="stop-color:#b6b6b6;stop-opacity:1" id="stop2220" offset="0"/><stop style="stop-color:#f0f0f0;stop-opacity:1" id="stop2222" offset="1"/></linearGradient><linearGradient id="linearGradient2224" x1="6.253" x2="16.256" y1="4.391" y2="19.5" gradientTransform="matrix(1.192114,0.000000,0.000000,1.192114,55.80966,0.104330)" gradientUnits="userSpaceOnUse" xlink:href="#linearGradient2218"/><linearGradient id="linearGradient1321" x1="-8.924" x2="-14.099" y1="11.125" y2=".271" gradientTransform="matrix(1.192114,0.000000,0.000000,1.192114,26.80966,0.104330)" gradientUnits="userSpaceOnUse" xlink:href="#linearGradient2218"/><radialGradient id="radialGradient2062" cx="12.625" cy="19.5" r="11.875" fx="12.625" fy="19.5" gradientTransform="matrix(1.000000,0.000000,0.000000,0.631579,1.223793e-16,7.184211)" gradientUnits="userSpaceOnUse" xlink:href="#linearGradient2056"/><linearGradient id="linearGradient2229" x1="6.253" x2="16.256" y1="4.391" y2="19.5" gradientTransform="matrix(1.192114,0.000000,0.000000,1.192114,65.82356,0.104330)" gradientUnits="userSpaceOnUse" xlink:href="#linearGradient2218"/><linearGradient id="linearGradient2527" x1="-42.779" x2="-33.971" y1="-7.008" y2="14.068" gradientTransform="matrix(1.192114,0.000000,0.000000,1.192114,81.32356,-0.395670)" gradientUnits="userSpaceOnUse" xlink:href="#linearGradient2218"/><linearGradient id="linearGradient2529" x1="6.253" x2="16.256" y1="4.391" y2="19.5" gradientTransform="matrix(1.112640,0.000000,0.000000,1.112640,78.16958,0.630708)" gradientUnits="userSpaceOnUse" xlink:href="#linearGradient2218"/><linearGradient id="linearGradient2531" x1="-32.398" x2="-27.68" y1="5.417" y2="22.247" gradientTransform="matrix(1.192114,0.000000,0.000000,1.192114,80.82356,-0.895670)" gradientUnits="userSpaceOnUse" xlink:href="#linearGradient2533"/><linearGradient id="linearGradient1331" x1="-63.252" x2="-51.141" y1="6.277" y2="13.46" gradientTransform="matrix(1.192114,0.000000,-7.948847e-18,1.192114,87.06128,-11.57533)" gradientUnits="userSpaceOnUse" xlink:href="#linearGradient2218"/></defs><metadata id="metadata4"/><g id="layer1"><path style="opacity:.18285711;color:#000;fill:#000;fill-opacity:1;fill-rule:evenodd;stroke:#000;stroke-width:.80000025;stroke-linecap:butt;stroke-linejoin:miter;marker:none;marker-start:none;marker-mid:none;marker-end:none;stroke-miterlimit:4;stroke-dasharray:none;stroke-dashoffset:0;stroke-opacity:1;visibility:visible;display:inline;overflow:visible;font-family:Bitstream Vera Sans" id="path1683" d="M 12.593750,2.7500000 C 9.2047500,3.2500000 8.7801128,5.7013350 9.0937500,6.8125000 C 8.0002842,5.9446431 5.2031250,5.7148925 3.9218750,7.6562500 C 2.6500255,9.5833638 3.7211053,12.276449 5.2812500,13.156250 C 4.0901113,13.817575 3.2500000,15.041890 3.2500000,16.500000 C 3.2500000,18.639000 4.9860000,20.375000 7.1250000,20.375000 C 8.1042786,20.375000 8.9738224,19.974817 9.6562500,19.375000 C 9.6331009,19.546196 9.5625000,19.697491 9.5625000,19.875000 C 9.5625000,22.014000 11.298500,23.750000 13.437500,23.750000 C 15.576500,23.750000 17.312500,22.014000 17.312500,19.875000 C 17.312500,19.763779 17.259200,19.671354 17.250000,19.562500 C 17.892301,20.035153 18.641957,20.375000 19.500000,20.375000 C 21.639000,20.375000 23.375000,18.639000 23.375000,16.500000 C 23.375000,15.057397 22.545334,13.854571 21.375000,13.187500 C 22.572822,12.254448 24.218750,10.578397 22.968750,8.1562500 C 21.648347,5.5976827 18.562500,6.3086165 17.375000,7.0312500 C 17.687500,4.4547500 15.982750,2.2500000 12.593750,2.7500000 z M 13.500000,8.6875000 C 15.984000,8.6875000 18.000000,10.703500 18.000000,13.187500 C 18.000000,15.671500 15.984000,17.687500 13.500000,17.687500 C 11.016000,17.687500 9.0000000,15.671500 9.0000000,13.187500 C 9.0000000,10.703500 11.016000,8.6875000 13.500000,8.6875000 z"/><path id="path1648" d="M 11.156250,1.5000000 C 7.7672500,2.0000000 7.3426128,4.4513350 7.6562500,5.5625000 C 6.5627842,4.6946431 3.7656250,4.4648925 2.4843750,6.4062500 C 1.2125255,8.3333638 2.2836053,11.026449 3.8437500,11.906250 C 2.6526113,12.567575 1.8125000,13.791890 1.8125000,15.250000 C 1.8125000,17.389000 3.5485000,19.125000 5.6875000,19.125000 C 6.6667786,19.125000 7.5363224,18.724817 8.2187500,18.125000 C 8.1956009,18.296196 8.1250000,18.447491 8.1250000,18.625000 C 8.1250000,20.764000 9.8610000,22.500000 12.000000,22.500000 C 14.139000,22.500000 15.875000,20.764000 15.875000,18.625000 C 15.875000,18.513779 15.821700,18.421354 15.812500,18.312500 C 16.454801,18.785153 17.204457,19.125000 18.062500,19.125000 C 20.201500,19.125000 21.937500,17.389000 21.937500,15.250000 C 21.937500,13.807397 21.107834,12.604571 19.937500,11.937500 C 21.135322,11.004448 22.781250,9.3283965 21.531250,6.9062500 C 20.210847,4.3476827 17.125000,5.0586165 15.937500,5.7812500 C 16.250000,3.2047500 14.545250,1.00000000 11.156250,1.5000000 z M 12.062500,7.4375000 C 14.546500,7.4375000 16.562500,9.4535000 16.562500,11.937500 C 16.562500,14.421500 14.546500,16.437500 12.062500,16.437500 C 9.5785000,16.437500 7.5625000,14.421500 7.5625000,11.937500 C 7.5625000,9.4535000 9.5785000,7.4375000 12.062500,7.4375000 z" style="overflow:visible;display:inline;visibility:visible;stroke-opacity:1;stroke-dashoffset:0;font-family:Bitstream Vera Sans;stroke-dasharray:none;stroke-miterlimit:4;marker-end:none;marker-mid:none;marker-start:none;marker:none;stroke-linejoin:miter;stroke-linecap:butt;stroke-width:.80000026;stroke:#000;fill-rule:evenodd;fill-opacity:1;fill:url(#linearGradient1331);color:#000;opacity:1"/><path d="M 11.344605,2.2720975 C 7.9063317,2.7287096 8.2016569,5.8141675 8.4884063,6.8300734 C 7.4886823,6.0366170 4.6536185,4.7471925 3.2286610,6.8827396 C 1.7941494,9.0326052 3.8576031,11.075604 5.2839982,11.879980 C 4.1949746,12.484610 2.6768852,13.635216 2.6768852,14.968324 C 2.6768852,16.923949 3.9203096,18.292374 5.8759353,18.292374 C 6.7712613,18.292374 8.3544709,17.391697 8.9794709,16.928988 C 8.9794709,18.884614 8.6291450,21.628038 12.053521,21.596788 C 15.509147,21.565538 15.172590,17.774051 15.039179,16.987029 C 15.626416,17.419162 16.999305,18.229874 17.783789,18.229874 C 19.739415,18.229874 21.076589,16.923949 21.076589,14.968324 C 21.076589,13.649394 19.568049,12.674685 18.498047,12.064801 C 19.593181,11.211739 21.910505,9.5231234 20.767666,7.3086251 C 19.560460,4.9694012 16.082910,6.5256374 14.997213,7.1863202 C 15.282923,4.8307010 14.786819,1.8149620 11.344605,2.2720975 z M 17.329267,11.874997 C 17.329267,14.816754 14.941754,17.204267 11.999997,17.204267 C 9.0582400,17.204267 6.6707271,14.816754 6.6707271,11.874997 C 6.6707271,8.9332401 9.0582400,6.5457272 11.999997,6.5457272 C 14.941754,6.5457272 17.329267,8.9332401 17.329267,11.874997 z" style="color:#000;fill:none;fill-opacity:1;fill-rule:evenodd;stroke:#fefefe;stroke-width:.80000007;stroke-linecap:butt;stroke-linejoin:miter;stroke-miterlimit:4;stroke-dashoffset:0;stroke-opacity:1;marker:none;marker-start:none;marker-mid:none;marker-end:none;visibility:visible;display:inline;overflow:visible;font-family:Bitstream Vera Sans;opacity:.78285714" id="path2444"/></g></svg>