<svg xmlns="http://www.w3.org/2000/svg" xmlns:cc="http://web.resource.org/cc/" xmlns:svg="http://www.w3.org/2000/svg" xmlns:xlink="http://www.w3.org/1999/xlink" id="svg1288" width="24" height="24"><defs id="defs3"><linearGradient id="linearGradient2218"><stop style="stop-color:#b6b6b6;stop-opacity:1" id="stop2220" offset="0"/><stop style="stop-color:#f0f0f0;stop-opacity:1" id="stop2222" offset="1"/></linearGradient><linearGradient id="linearGradient2224" x1="6.253" x2="16.256" y1="4.391" y2="19.5" gradientTransform="matrix(2.441894e-16,-1.000000,1.000000,2.441894e-16,26.76771,32.18389)" gradientUnits="userSpaceOnUse" xlink:href="#linearGradient2218"/><linearGradient id="linearGradient1481" x1="7.502" x2="22.882" y1="11.591" y2="3.764" gradientTransform="matrix(2.583112e-17,1.000000,-1.000000,2.583112e-17,48.22134,-3.459283)" gradientUnits="userSpaceOnUse" xlink:href="#linearGradient2218"/><linearGradient id="linearGradient2105" x1="8.897" x2="20.874" y1="39.685" y2="34.514" gradientTransform="matrix(2.583112e-17,1.000000,-1.000000,2.583112e-17,72.78655,-2.442357)" gradientUnits="userSpaceOnUse" xlink:href="#linearGradient2218"/><linearGradient id="linearGradient2533" x1="5.804" x2="24.321" y1="62.799" y2="56.17" gradientTransform="matrix(2.583112e-17,1.000000,-1.000000,2.583112e-17,97.62367,-2.442357)" gradientUnits="userSpaceOnUse" xlink:href="#linearGradient2218"/><linearGradient id="linearGradient2604" x1="6.265" x2="25.813" y1="115.104" y2="109.666" gradientTransform="matrix(2.243715e-17,0.868435,-0.868609,2.243262e-17,108.8030,-1.661115)" gradientUnits="userSpaceOnUse" xlink:href="#linearGradient2218"/><linearGradient id="linearGradient2634" x1="6.265" x2="25.813" y1="115.104" y2="109.666" gradientTransform="matrix(2.243715e-17,0.868435,-0.868609,2.243262e-17,108.8030,-1.661119)" gradientUnits="userSpaceOnUse" xlink:href="#linearGradient2218"/><linearGradient id="linearGradient1302" x1="6.265" x2="25.813" y1="115.104" y2="109.666" gradientTransform="matrix(2.243715e-17,0.868435,-0.868609,2.243262e-17,108.8030,-1.661115)" gradientUnits="userSpaceOnUse" xlink:href="#linearGradient2218"/></defs><metadata id="metadata4"/><g id="layer1"><path id="path2632" d="M 23.439254,7.4746259 C 23.439254,9.3307809 20.434050,9.3307812 20.434050,9.3307812 L 20.434050,23.649694 C 20.434050,23.649694 23.527642,23.914859 23.439254,22.058704 L 23.439254,7.4746259 z" style="opacity:1;color:#000;fill:url(#linearGradient2634);fill-opacity:1;fill-rule:evenodd;stroke:#000;stroke-width:.79999983;stroke-linecap:butt;stroke-linejoin:miter;marker:none;marker-start:none;marker-mid:none;marker-end:none;stroke-miterlimit:4;stroke-dasharray:none;stroke-dashoffset:0;stroke-opacity:1;visibility:visible;display:inline;overflow:visible;font-family:Bitstream Vera Sans"/><path style="opacity:1;color:#000;fill:url(#linearGradient2604);fill-opacity:1;fill-rule:evenodd;stroke:#000;stroke-width:.79999983;stroke-linecap:butt;stroke-linejoin:miter;marker:none;marker-start:none;marker-mid:none;marker-end:none;stroke-miterlimit:4;stroke-dasharray:none;stroke-dashoffset:0;stroke-opacity:1;visibility:visible;display:inline;overflow:visible;font-family:Bitstream Vera Sans" id="path2626" d="M 23.439254,22.147092 C 23.439254,20.732879 21.759875,20.202549 20.522438,20.290937 L 2.9331574,20.556102 C 1.6073324,20.556102 0.52522436,19.672218 0.43683636,18.434781 L 0.52522536,2.7900436 C 0.70200236,4.7345872 1.9608854,4.6461988 3.4634874,4.6461988 L 20.522438,4.3810338 C 22.201817,4.3810338 23.350866,5.7068590 23.439254,7.3862376 C 23.439254,7.3862376 23.439254,22.147092 23.439254,22.147092 z"/><path id="path2636" d="M 22.634654,19.880561 C 22.236907,19.638632 20.999441,19.393229 19.859675,19.474640 L 3.2609674,19.740973 C 2.0397904,19.740973 1.6757574,19.214116 1.5943454,18.074350 L 1.7862434,3.5539663 C 1.9490674,5.3450271 2.7410884,5.4182948 4.1471864,5.4182948 L 20.456296,5.2182535 C 21.694307,5.2182535 22.575339,5.9532954 22.634654,7.5443147 C 22.634654,7.5443147 22.634654,19.880561 22.634654,19.880561 z" style="opacity:.83428574;color:#000;fill:none;fill-opacity:1;fill-rule:evenodd;stroke:#fff;stroke-width:.79999959;stroke-linecap:butt;stroke-linejoin:miter;marker:none;marker-start:none;marker-mid:none;marker-end:none;stroke-miterlimit:4;stroke-dasharray:none;stroke-dashoffset:0;stroke-opacity:1;visibility:visible;display:inline;overflow:visible;font-family:Bitstream Vera Sans"/><path style="opacity:1;color:#000;fill:url(#linearGradient1302);fill-opacity:1;fill-rule:evenodd;stroke:#000;stroke-width:.79999983;stroke-linecap:butt;stroke-linejoin:miter;marker:none;marker-start:none;marker-mid:none;marker-end:none;stroke-miterlimit:4;stroke-dasharray:none;stroke-dashoffset:0;stroke-opacity:1;visibility:visible;display:inline;overflow:visible;font-family:Bitstream Vera Sans" id="path2628" d="M 0.43683636,18.383005 C 0.43683636,16.526850 4.2804294,16.225073 4.2804294,16.225073 L 4.2804294,0.31516979 C 4.2804294,0.31516979 0.52522536,0.44016975 0.52522536,3.0034319 L 0.43683636,18.383005 z"/><path id="path1446" d="M 1.2903010,16.209134 C 2.1394105,15.718900 3.4582126,15.479881 3.4582126,15.479881 L 3.4582126,1.1765347 C 3.4582126,1.1765347 1.3739313,1.6040086 1.3739313,2.9388161 L 1.2903010,16.209134 z" style="font-family:Bitstream Vera Sans;overflow:visible;display:inline;visibility:visible;stroke-opacity:1;stroke-dashoffset:0;stroke-dasharray:none;stroke-miterlimit:4;marker-end:none;marker-mid:none;marker-start:none;marker:none;stroke-linejoin:miter;stroke-linecap:butt;stroke-width:.79999954;stroke:#fdfdfd;fill-rule:evenodd;fill-opacity:1;fill:none;color:#000;opacity:.86285714"/></g></svg>